<svg width="32" height="32" viewBox="0 0 32 32" fill="none" xmlns="http://www.w3.org/2000/svg"><g clip-path="url(#a)" fill="currentColor"><path d="M29.913 2.64h-1.82V.5a.5.5 0 1 0-.998 0v2.14h-1.9V.5a.5.5 0 1 0-.999 0v2.14h-1.9V.5a.5.5 0 1 0-.998 0v2.14H10.703V.5a.5.5 0 1 0-1 0v2.14h-1.9V.5a.5.5 0 1 0-.998 0v2.14h-1.9V.5a.5.5 0 1 0-.999 0v2.14H2.087c-.984 0-1.784.8-1.784 1.784V30.216c0 .984.8 1.784 1.784 1.784h27.826c.984 0 1.784-.8 1.784-1.784V4.424c0-.984-.8-1.784-1.784-1.784Zm.785 6.1h-2.631a.5.5 0 1 0 0 1h2.63v20.476a.786.786 0 0 1-.784.785H2.087a.786.786 0 0 1-.785-.785V9.74H26.47a.5.5 0 1 0 0-.999H1.302V4.424c0-.433.352-.785.785-.785h1.82v2.55a.5.5 0 1 0 .998 0V3.64h1.9v2.55a.5.5 0 1 0 .999 0V3.64h1.9v2.55a.5.5 0 1 0 .998 0V3.64h10.595v2.55a.5.5 0 1 0 1 0V3.64h1.9v2.55a.5.5 0 1 0 .998 0V3.64h1.9v2.55a.5.5 0 1 0 .999 0V3.64h1.819c.433 0 .785.352.785.785V8.74Z"/><path d="M24.357 22.002a.5.5 0 0 0-.597.014 5.823 5.823 0 0 1-3.628 1.253 5.89 5.89 0 0 1-5.884-5.884c0-1.614.643-3.12 1.809-4.242a.5.5 0 0 0-.439-.85 7.878 7.878 0 0 0-6.412 7.739c0 4.343 3.534 7.877 7.878 7.877a7.875 7.875 0 0 0 7.457-5.339.499.499 0 0 0-.184-.568Zm-7.273 4.908a6.886 6.886 0 0 1-6.878-6.878 6.883 6.883 0 0 1 4.081-6.286 6.822 6.822 0 0 0-1.038 3.64 6.89 6.89 0 0 0 9.664 6.299 6.877 6.877 0 0 1-5.83 3.225Z"/></g><defs><clipPath id="a"><path fill="currentColor" d="M0 0h32v32H0z"/></clipPath></defs></svg>