<svg width="32" height="32" viewBox="0 0 32 32" fill="none" xmlns="http://www.w3.org/2000/svg"><g clip-path="url(#a)" fill="#fff"><path d="M15.702 14.19c-1.045 0-1.895.85-1.895 1.896 0 1.045.85 1.895 1.895 1.895s1.896-.85 1.896-1.895-.85-1.896-1.896-1.896Zm0 2.775a.88.88 0 0 1 0-1.758.88.88 0 0 1 0 1.758Z"/><path d="M29.003 4.938h-2.916c-.856 0-1.565.634-1.684 1.458h-6.825v-.807h1.654c.938 0 1.7-.763 1.7-1.7v-.547c0-.939-.762-1.702-1.7-1.702H17.79A2.152 2.152 0 0 0 15.702 0c-1.01 0-1.858.7-2.087 1.64h-1.442c-.938 0-1.7.763-1.7 1.701v.547c0 .938.762 1.701 1.7 1.701h1.654v.806h-2.36a.508.508 0 1 0 0 1.017h10.268v4.816h-3.357a4.643 4.643 0 0 0-2.184-.812c-.012 0-.024-.002-.035-.003a4.77 4.77 0 0 0-.182-.014l-.055-.003a4.86 4.86 0 0 0-.44 0l-.054.003c-.06.004-.122.008-.182.014l-.036.003a4.643 4.643 0 0 0-2.184.812H7.198a.686.686 0 0 1-.684-.685V8.096c0-.377.307-.684.684-.684h2.54a.508.508 0 1 0 0-1.017h-2.54c-.832 0-1.526.601-1.672 1.392H2.997c-.938 0-1.7.763-1.7 1.701v.663c0 .938.762 1.7 1.7 1.7h2.53c.145.792.84 1.393 1.672 1.393h2.053v.916c0 .938.763 1.701 1.701 1.701h.06a4.69 4.69 0 0 0 1.821 3.937l-6.609 11.44a.508.508 0 0 0 .88.508L13.7 20.332c.462.218.965.364 1.494.42v10.74a.508.508 0 1 0 1.017 0v-10.74a4.655 4.655 0 0 0 1.493-.42L24.3 31.746a.508.508 0 1 0 .88-.508l-6.61-11.439a4.689 4.689 0 0 0 1.822-3.937h.006c.938 0 1.7-.763 1.7-1.701v-.917h2.305a1.703 1.703 0 0 0 1.684 1.458h2.916c.938 0 1.7-.763 1.7-1.7V6.638c.001-.938-.762-1.701-1.7-1.701Zm-13.3-3.922c.441 0 .825.255 1.011.624h-2.023c.186-.37.57-.624 1.011-.624Zm.858 5.38h-1.717v-.807h1.717v.806Zm.508-1.823h-4.896a.686.686 0 0 1-.685-.685v-.546c0-.378.308-.685.685-.685h7.059c.377 0 .684.307.684.684v.547a.686.686 0 0 1-.684.685h-2.163ZM5.497 10.836h-2.5a.686.686 0 0 1-.685-.685v-.663c0-.377.308-.684.685-.684h2.5v2.032Zm5.883 3.418-.013.03a4.66 4.66 0 0 0-.066.168l-.033.093-.037.11a4.682 4.682 0 0 0-.043.143l-.014.048h-.22a.686.686 0 0 1-.685-.685v-.917h1.695c-.237.31-.432.65-.584 1.01Zm4.322 5.51a3.683 3.683 0 0 1-3.589-4.482l.007-.03.033-.133.015-.052a4.342 4.342 0 0 1 .062-.193l.024-.07a3.94 3.94 0 0 1 .052-.131l.01-.023a3.688 3.688 0 0 1 3.167-2.236l.045-.002a3.742 3.742 0 0 1 .349 0l.044.002a3.61 3.61 0 0 1 .174.014 3.688 3.688 0 0 1 2.994 2.223l.01.022c.017.043.035.087.051.131l.025.07a3.278 3.278 0 0 1 .061.193l.015.053.034.133.006.03a3.685 3.685 0 0 1 .09.804 3.683 3.683 0 0 1-3.679 3.678Zm5.38-5.603a.686.686 0 0 1-.684.685h-.167l-.015-.048a4.603 4.603 0 0 0-.042-.143l-.037-.11-.033-.093a5.041 5.041 0 0 0-.066-.167l-.013-.031a4.664 4.664 0 0 0-.584-1.01h1.641v.917Zm3.304-1.933H22.75V7.412h1.635v4.816Zm5.302.773a.686.686 0 0 1-.685.685h-2.916a.686.686 0 0 1-.685-.685V6.639c0-.378.307-.685.685-.685h2.916c.378 0 .685.307.685.685V13Z"/></g><defs><clipPath id="a"><path fill="#fff" d="M0 0h32v32H0z"/></clipPath></defs></svg>