<svg width="32" height="32" viewBox="0 0 32 32" fill="none" xmlns="http://www.w3.org/2000/svg"><g clip-path="url(#a)"><path d="M15.736 9.084c3.938 0 7.28 3.455 7.28 7.543a.364.364 0 0 0 .727 0c0-4.482-3.657-8.27-8.007-8.27a.363.363 0 1 0 0 .727ZM13.82 28.88h4.52a.364.364 0 0 0 0-.727h-4.52a.364.364 0 0 0 0 .727ZM10.916 28.88h1.694a.363.363 0 1 0 0-.727h-1.694a.364.364 0 0 0 0 .727ZM19.39 28.956h2.474a.363.363 0 1 0 0-.727H19.39a.364.364 0 0 0 0 .727Z" fill="currentColor" stroke="currentColor" stroke-width=".2"/><mask id="b" maskUnits="userSpaceOnUse" x="-.995" y=".374" width="34" height="31" fill="#000"><path fill="currentColor" d="M-.995.374h34v31h-34z"/><path d="m1.19 19.811 1.2.316a13.876 13.876 0 0 0 3.452 6.505 1.935 1.935 0 0 0-1.022 1.705v.359A1.935 1.935 0 0 0 6.75 30.63H24.99a1.935 1.935 0 0 0 1.935-1.934v-.359a1.93 1.93 0 0 0-.896-1.626 13.896 13.896 0 0 0 3.523-6.573.322.322 0 0 0 .05 0l1.207-.32a1.444 1.444 0 0 0 1.055-1.146 12.614 12.614 0 0 0-.021-3.835 1.448 1.448 0 0 0-1.055-1.183l-1.009-.263V4.8a1.724 1.724 0 1 0-.527 0v8.01C27.468 7.055 22.207 2.743 16.16 2.656h-.185C9.674 2.65 4.18 7.266 2.558 13.343a.265.265 0 0 0-.147 0l-1.194.303A1.447 1.447 0 0 0 .162 14.83a12.612 12.612 0 0 0-.02 3.835A1.444 1.444 0 0 0 1.19 19.81Zm4.157 8.885v-.359a1.405 1.405 0 0 1 1.404-1.404h.791v3.162h-.79a1.408 1.408 0 0 1-1.405-1.4Zm18.328-1.764v3.163H8.067v-3.162h15.608ZM15.97 7.06c5.123 0 9.454 4.48 9.454 9.804a9.47 9.47 0 0 1-1.297 4.79 3.88 3.88 0 0 1-3.07 1.886c-2.322.174-6.713.42-10.034.122a3.953 3.953 0 0 1-3.065-1.95c-.657-1.134-1.447-2.895-1.447-4.848 0-5.316 4.335-9.804 9.459-9.804Zm-1.318 17.268a79.55 79.55 0 0 0 3.55-.087v2.164h-4.088v-2.082l.538.005Zm11.75 4.01v.358a1.41 1.41 0 0 1-1.408 1.407h-.79V26.94h.79a1.407 1.407 0 0 1 1.402 1.397h.006Zm4.923-13.43c.196 1.214.203 2.451.021 3.667a.91.91 0 0 1-.667.725l-1.006.263a14.116 14.116 0 0 0-.145-5.711l1.12.303a.92.92 0 0 1 .672.754h.005Zm-3.012-11.81a1.196 1.196 0 1 1 2.392.005 1.196 1.196 0 0 1-2.392-.005Zm1.054 13.97a13.376 13.376 0 0 1-3.785 9.348.28.28 0 0 0-.042.066 1.983 1.983 0 0 0-.548-.08h-6.268v-2.187c.907-.047 1.721-.1 2.372-.15a4.4 4.4 0 0 0 3.484-2.146 10.015 10.015 0 0 0 1.371-5.055c0-5.455-4.336-10.081-9.557-10.32V3.19c.605.02 1.208.084 1.803.192V5.74a.264.264 0 0 0 .527 0V3.49c5.993 1.36 10.64 7.026 10.64 13.58l.003-.002ZM13.588 3.411v2.182a.263.263 0 1 0 .527 0V3.32c.58-.088 1.166-.135 1.753-.14v3.355c-5.363.06-9.884 4.763-9.884 10.33 0 2.07.823 3.921 1.513 5.11a4.48 4.48 0 0 0 3.471 2.211c.823.074 1.708.113 2.612.132v2.087H6.751c-.125 0-.25.013-.374.037 0 0 0-.018-.016-.023a13.376 13.376 0 0 1-3.784-9.35c0-6.688 4.841-12.45 11.011-13.657ZM.674 14.91a.92.92 0 0 1 .677-.754l1.054-.282a14.016 14.016 0 0 0-.142 5.68l-.949-.264a.91.91 0 0 1-.667-.725A11.94 11.94 0 0 1 .68 14.91H.674Z"/></mask><path d="m1.19 19.811 1.2.316a13.876 13.876 0 0 0 3.452 6.505 1.935 1.935 0 0 0-1.022 1.705v.359A1.935 1.935 0 0 0 6.75 30.63H24.99a1.935 1.935 0 0 0 1.935-1.934v-.359a1.93 1.93 0 0 0-.896-1.626 13.896 13.896 0 0 0 3.523-6.573.322.322 0 0 0 .05 0l1.207-.32a1.444 1.444 0 0 0 1.055-1.146 12.614 12.614 0 0 0-.021-3.835 1.448 1.448 0 0 0-1.055-1.183l-1.009-.263V4.8a1.724 1.724 0 1 0-.527 0v8.01C27.468 7.055 22.207 2.743 16.16 2.656h-.185C9.674 2.65 4.18 7.266 2.558 13.343a.265.265 0 0 0-.147 0l-1.194.303A1.447 1.447 0 0 0 .162 14.83a12.612 12.612 0 0 0-.02 3.835A1.444 1.444 0 0 0 1.19 19.81Zm4.157 8.885v-.359a1.405 1.405 0 0 1 1.404-1.404h.791v3.162h-.79a1.408 1.408 0 0 1-1.405-1.4Zm18.328-1.764v3.163H8.067v-3.162h15.608ZM15.97 7.06c5.123 0 9.454 4.48 9.454 9.804a9.47 9.47 0 0 1-1.297 4.79 3.88 3.88 0 0 1-3.07 1.886c-2.322.174-6.713.42-10.034.122a3.953 3.953 0 0 1-3.065-1.95c-.657-1.134-1.447-2.895-1.447-4.848 0-5.316 4.335-9.804 9.459-9.804Zm-1.318 17.268a79.55 79.55 0 0 0 3.55-.087v2.164h-4.088v-2.082l.538.005Zm11.75 4.01v.358a1.41 1.41 0 0 1-1.408 1.407h-.79V26.94h.79a1.407 1.407 0 0 1 1.402 1.397h.006Zm4.923-13.43c.196 1.214.203 2.451.021 3.667a.91.91 0 0 1-.667.725l-1.006.263a14.116 14.116 0 0 0-.145-5.711l1.12.303a.92.92 0 0 1 .672.754h.005Zm-3.012-11.81a1.196 1.196 0 1 1 2.392.005 1.196 1.196 0 0 1-2.392-.005Zm1.054 13.97a13.376 13.376 0 0 1-3.785 9.348.28.28 0 0 0-.042.066 1.983 1.983 0 0 0-.548-.08h-6.268v-2.187c.907-.047 1.721-.1 2.372-.15a4.4 4.4 0 0 0 3.484-2.146 10.015 10.015 0 0 0 1.371-5.055c0-5.455-4.336-10.081-9.557-10.32V3.19c.605.02 1.208.084 1.803.192V5.74a.264.264 0 0 0 .527 0V3.49c5.993 1.36 10.64 7.026 10.64 13.58l.003-.002ZM13.588 3.411v2.182a.263.263 0 1 0 .527 0V3.32c.58-.088 1.166-.135 1.753-.14v3.355c-5.363.06-9.884 4.763-9.884 10.33 0 2.07.823 3.921 1.513 5.11a4.48 4.48 0 0 0 3.471 2.211c.823.074 1.708.113 2.612.132v2.087H6.751c-.125 0-.25.013-.374.037 0 0 0-.018-.016-.023a13.376 13.376 0 0 1-3.784-9.35c0-6.688 4.841-12.45 11.011-13.657ZM.674 14.91a.92.92 0 0 1 .677-.754l1.054-.282a14.016 14.016 0 0 0-.142 5.68l-.949-.264a.91.91 0 0 1-.667-.725A11.94 11.94 0 0 1 .68 14.91H.674Z" fill="currentColor"/><path d="m1.19 19.811 1.2.316a13.876 13.876 0 0 0 3.452 6.505 1.935 1.935 0 0 0-1.022 1.705v.359A1.935 1.935 0 0 0 6.75 30.63H24.99a1.935 1.935 0 0 0 1.935-1.934v-.359a1.93 1.93 0 0 0-.896-1.626 13.896 13.896 0 0 0 3.523-6.573.322.322 0 0 0 .05 0l1.207-.32a1.444 1.444 0 0 0 1.055-1.146 12.614 12.614 0 0 0-.021-3.835 1.448 1.448 0 0 0-1.055-1.183l-1.009-.263V4.8a1.724 1.724 0 1 0-.527 0v8.01C27.468 7.055 22.207 2.743 16.16 2.656h-.185C9.674 2.65 4.18 7.266 2.558 13.343a.265.265 0 0 0-.147 0l-1.194.303A1.447 1.447 0 0 0 .162 14.83a12.612 12.612 0 0 0-.02 3.835A1.444 1.444 0 0 0 1.19 19.81Zm4.157 8.885v-.359a1.405 1.405 0 0 1 1.404-1.404h.791v3.162h-.79a1.408 1.408 0 0 1-1.405-1.4Zm18.328-1.764v3.163H8.067v-3.162h15.608ZM15.97 7.06c5.123 0 9.454 4.48 9.454 9.804a9.47 9.47 0 0 1-1.297 4.79 3.88 3.88 0 0 1-3.07 1.886c-2.322.174-6.713.42-10.034.122a3.953 3.953 0 0 1-3.065-1.95c-.657-1.134-1.447-2.895-1.447-4.848 0-5.316 4.335-9.804 9.459-9.804Zm-1.318 17.268a79.55 79.55 0 0 0 3.55-.087v2.164h-4.088v-2.082l.538.005Zm11.75 4.01v.358a1.41 1.41 0 0 1-1.408 1.407h-.79V26.94h.79a1.407 1.407 0 0 1 1.402 1.397h.006Zm4.923-13.43c.196 1.214.203 2.451.021 3.667a.91.91 0 0 1-.667.725l-1.006.263a14.116 14.116 0 0 0-.145-5.711l1.12.303a.92.92 0 0 1 .672.754h.005Zm-3.012-11.81a1.196 1.196 0 1 1 2.392.005 1.196 1.196 0 0 1-2.392-.005Zm1.054 13.97a13.376 13.376 0 0 1-3.785 9.348.28.28 0 0 0-.042.066 1.983 1.983 0 0 0-.548-.08h-6.268v-2.187c.907-.047 1.721-.1 2.372-.15a4.4 4.4 0 0 0 3.484-2.146 10.015 10.015 0 0 0 1.371-5.055c0-5.455-4.336-10.081-9.557-10.32V3.19c.605.02 1.208.084 1.803.192V5.74a.264.264 0 0 0 .527 0V3.49c5.993 1.36 10.64 7.026 10.64 13.58l.003-.002ZM13.588 3.411v2.182a.263.263 0 1 0 .527 0V3.32c.58-.088 1.166-.135 1.753-.14v3.355c-5.363.06-9.884 4.763-9.884 10.33 0 2.07.823 3.921 1.513 5.11a4.48 4.48 0 0 0 3.471 2.211c.823.074 1.708.113 2.612.132v2.087H6.751c-.125 0-.25.013-.374.037 0 0 0-.018-.016-.023a13.376 13.376 0 0 1-3.784-9.35c0-6.688 4.841-12.45 11.011-13.657ZM.674 14.91a.92.92 0 0 1 .677-.754l1.054-.282a14.016 14.016 0 0 0-.142 5.68l-.949-.264a.91.91 0 0 1-.667-.725A11.94 11.94 0 0 1 .68 14.91H.674Z" stroke="currentColor" stroke-width=".4" mask="url(#b)"/><path d="M22.043 21.308v.1a.365.365 0 0 0 .266-.116 4.9 4.9 0 0 0 1.246-2.508v-.003a.364.364 0 0 0-.294-.407l-.006-.001a.364.364 0 0 0-.406.313 4.296 4.296 0 0 1-1.057 2.11.363.363 0 0 0 .002.515l.003.003a.364.364 0 0 0 .247.094v-.1Zm0 0a.264.264 0 0 1-.179-.069l1.592-2.472a4.8 4.8 0 0 1-1.22 2.457.264.264 0 0 1-.193.084ZM8.92 16.788h-.002a.363.363 0 0 1-.258-.106l.26.106Zm0 0a.364.364 0 0 0 .254-.109l3.38-3.389a.366.366 0 0 0-.511-.525m-3.124 4.023 3.124-4.023m0 0-.002.002m.002-.002-.002.002m0 0-3.38 3.399 3.38-3.4ZM11.7 16.45a.362.362 0 0 1-.257.106m.258-.106h-.515m.515 0 3.621-3.621m-3.621 3.621 3.621-3.621m-3.88 3.727a.364.364 0 0 1-.256-.105m.257.105v-.1.1Zm-.257-.105.07-.072-.07.072Zm4.136-3.623a.364.364 0 0 0 .106-.256m-.106.257.106-.257m0 0a.363.363 0 0 0-.106-.256m.106.256-.106-.256m0 0a.363.363 0 0 0-.118-.08m.118.08-.07.07-.048-.15m0 0a.363.363 0 0 0-.14-.028m.14.028-.14-.028m0 0a.363.363 0 0 0-.14.028m.14-.028-.14.028m0 0a.365.365 0 0 0-.118.08m.118-.08-.118.08m0 0-3.62 3.612 3.62-3.612ZM10.943 16.784a.364.364 0 0 1-.007.512l-1.344 1.35-.07-.071a.261.261 0 0 1-.289.058.26.26 0 0 1-.086-.058l1.796-1.79Zm0 0h-.001a.362.362 0 0 0-.516 0l-1.35 1.346a.365.365 0 0 0 0 .516l1.867-1.862ZM9.582 20.096l.256.519v.1a.366.366 0 0 0 .257-.106l4.394-4.39v-.001a.364.364 0 0 0 .002-.511.364.364 0 0 0-.532 0l-4.377 4.39Z" fill="currentColor" stroke="currentColor" stroke-width=".2"/></g><defs><clipPath id="a"><path fill="currentColor" d="M0 0h32v32H0z"/></clipPath></defs></svg>