<svg width="32" height="32" viewBox="0 0 32 32" fill="none" xmlns="http://www.w3.org/2000/svg"><g clip-path="url(#a)" fill="#fff"><path d="M16.017 16.774a2.496 2.496 0 0 0-2.494 2.494 2.496 2.496 0 0 0 2.494 2.494 2.496 2.496 0 0 0 2.494-2.494 2.497 2.497 0 0 0-2.494-2.494Zm0 3.98a1.487 1.487 0 0 1-1.485-1.486c0-.819.666-1.485 1.485-1.485.819 0 1.485.666 1.485 1.485 0 .82-.666 1.485-1.485 1.485Z"/><path d="M24.75 29.639c.877 0 1.57-.258 2.062-.765.699-.721.71-1.69.707-1.814v-2.842c0-.266-.084-.635-.517-1.201v-6.748a.504.504 0 1 0-1.009 0v5.677c-.68-.622-1.591-1.335-2.724-2.13l-.02-.015a52.301 52.301 0 0 0-.331-.23l-.045-.03V7.586c0-.86.7-1.56 1.56-1.56.86 0 1.56.7 1.56 1.56v6.8a.504.504 0 1 0 1.009 0v-6.8a2.572 2.572 0 0 0-2.569-2.569 2.572 2.572 0 0 0-2.36 1.555A12.222 12.222 0 0 0 16.25.056a.504.504 0 0 0-.464 0 12.222 12.222 0 0 0-5.824 6.517A2.572 2.572 0 0 0 7.6 5.018a2.572 2.572 0 0 0-2.569 2.569v15.307c-.463.591-.551.972-.551 1.245v2.842c-.002.123.008 1.093.707 1.814.492.507 1.185.764 2.061.764h4.48c.307.365.766.597 1.278.597h2.506v.612a.504.504 0 1 0 1.008 0v-.612h2.506c.474 0 .902-.199 1.206-.517h4.518ZM6.04 7.587c0-.86.7-1.56 1.56-1.56.861 0 1.561.7 1.561 1.56V19.438c-1.315.904-2.359 1.706-3.12 2.399V7.587ZM7.25 28.551c-.588 0-1.036-.152-1.33-.451-.436-.444-.43-1.096-.43-1.099v-2.862c0-.082.09-.86 3.2-3.132a53.139 53.139 0 0 1 2.615-1.78v9.182c0 .047.002.095.006.142H7.25Zm8.264.597h-2.506a.659.659 0 0 1-.531-.27.5.5 0 0 0-.052-.103.644.644 0 0 1-.04-.07.656.656 0 0 1-.038-.218v-1.533h3.167v2.194Zm4.174-.66a.658.658 0 0 1-.026.183l-.003.01a.67.67 0 0 1-.631.467h-2.506v-2.194h3.166v1.533Zm0-10.093v7.55h-3.166v-1.097a.504.504 0 1 0-1.008 0v1.097h-3.167V14.126c0-2.088 1.729-4.737 3.67-4.737 1.943 0 3.671 2.65 3.671 4.738v4.268ZM16.017 8.38c-2.592 0-4.68 3.144-4.68 5.747v3.887c-.235.146-.654.41-1.168.747v-7.827c0-4.128 2.234-7.881 5.848-9.859a11.202 11.202 0 0 1 5.847 9.86v7.927a57.775 57.775 0 0 0-1.168-.748v-3.987c0-2.603-2.087-5.747-4.68-5.747Zm4.673 20.25v-.014a1.61 1.61 0 0 0 .006-.129v-9.181c.39.25.902.584 1.458.964l.09.061a27.232 27.232 0 0 1 .285.198 63.454 63.454 0 0 1 .205.143l.03.022c.18.127.361.257.542.389 3.115 2.274 3.205 3.053 3.205 3.135v2.862c0 .006.008.647-.423 1.092-.295.304-.745.458-1.337.458H20.69ZM9.665 30.991H5.536a.504.504 0 1 0 0 1.009h4.13a.504.504 0 1 0 0-1.009ZM26.498 30.991h-4.13a.504.504 0 1 0 0 1.009h4.13a.504.504 0 1 0 0-1.009Z"/></g><defs><clipPath id="a"><path fill="#fff" d="M0 0h32v32H0z"/></clipPath></defs></svg>