<svg width="32" height="32" viewBox="0 0 32 32" fill="none" xmlns="http://www.w3.org/2000/svg"><path d="M29.201 9.244a.505.505 0 0 0-.714.714A8.489 8.489 0 0 1 30.99 16c0 .864-.13 1.698-.37 2.485a3.72 3.72 0 0 0-1.873-.506 3.731 3.731 0 0 0-3.728 3.727c0 .787.253 1.552.709 2.183a8.497 8.497 0 0 1-3.283.656c-4.342 0-7.938-3.256-8.476-7.454v-.008a8.86 8.86 0 0 1-.042-.398l-.006-.095-.008-.127-.006-.135-.004-.094a8.67 8.67 0 0 1 0-.468l.004-.094.006-.135.008-.126.006-.096.014-.154.006-.057.021-.187.001-.008c.538-4.199 4.134-7.454 8.476-7.454 1.712 0 3.364.505 4.777 1.46a.505.505 0 1 0 .565-.838 9.508 9.508 0 0 0-5.342-1.632c-2.098 0-4.04.68-5.618 1.83a8.197 8.197 0 0 0-2.881-.52C9.4 7.756 5.702 11.455 5.702 16c0 4.546 3.698 8.244 8.244 8.244.992 0 1.96-.175 2.881-.52a9.504 9.504 0 0 0 5.618 1.831c1.54 0 2.995-.367 4.284-1.016a.526.526 0 0 0 .054-.024 9.56 9.56 0 0 0 4.565-5.041l.01-.03A9.501 9.501 0 0 0 32 16a9.493 9.493 0 0 0-2.799-6.756Zm-15.255 13.99c-3.989 0-7.234-3.245-7.234-7.234s3.245-7.234 7.234-7.234c.668 0 1.323.09 1.957.269a9.483 9.483 0 0 0-3.01 7.212 9.483 9.483 0 0 0 3.01 6.718 7.212 7.212 0 0 1-1.957.269Zm12.705.201a2.684 2.684 0 0 1-.621-1.73 2.72 2.72 0 0 1 2.717-2.716c.542 0 1.068.162 1.514.462a8.6 8.6 0 0 1-3.61 3.984ZM13.946 6.182c.279 0 .505-.226.505-.505V2.559a.505.505 0 1 0-1.01 0v3.118c0 .279.226.505.505.505ZM13.946 25.818a.505.505 0 0 0-.505.505v3.118a.505.505 0 1 0 1.01 0v-3.118a.505.505 0 0 0-.505-.505ZM6.29 9.058a.504.504 0 0 0 .714 0 .505.505 0 0 0 0-.715L4.799 6.14a.505.505 0 1 0-.714.714l2.204 2.205ZM4.128 16a.505.505 0 0 0-.505-.505H.505a.505.505 0 1 0 0 1.01h3.118c.279 0 .505-.226.505-.505ZM6.29 22.942l-2.205 2.205a.505.505 0 1 0 .714.714l2.205-2.204a.505.505 0 1 0-.715-.715ZM8.347 7.313a.505.505 0 1 0 .875-.506l-1.559-2.7a.505.505 0 0 0-.875.506l1.559 2.7ZM.832 13.01l3.012.806a.505.505 0 0 0 .262-.976l-3.012-.807a.505.505 0 1 0-.262.976ZM5.443 20.909a.505.505 0 0 0-.69-.185l-2.7 1.559a.505.505 0 0 0 .506.875l2.7-1.559a.505.505 0 0 0 .184-.69ZM11.405 25.483a.505.505 0 0 0-.619.358l-.807 3.011a.505.505 0 1 0 .976.262l.807-3.012a.505.505 0 0 0-.357-.619ZM16.487 6.517a.506.506 0 0 0 .619-.358l.807-3.01a.505.505 0 0 0-.977-.262l-.806 3.01a.505.505 0 0 0 .357.62Z" fill="#fff"/><path d="M22.593 21.742a.467.467 0 1 0 0-.934.467.467 0 0 0 0 .934ZM26.377 13.057c-.95 0-1.724.773-1.724 1.724 0 .95.774 1.724 1.724 1.724.951 0 1.725-.773 1.725-1.724 0-.95-.774-1.724-1.725-1.724Zm0 2.438a.715.715 0 1 1 .002-1.43.715.715 0 0 1-.002 1.43ZM18.796 14.926a2.094 2.094 0 0 0-2.09 2.091c0 1.154.937 2.092 2.09 2.092a2.094 2.094 0 0 0 2.092-2.092 2.094 2.094 0 0 0-2.092-2.09Zm0 3.172c-.595 0-1.08-.485-1.08-1.08 0-.596.485-1.081 1.08-1.081.596 0 1.081.485 1.081 1.08 0 .596-.485 1.081-1.08 1.081ZM20.578 13.518a1.023 1.023 0 1 0 0-2.046 1.023 1.023 0 0 0 0 2.046Z" fill="#fff"/></svg>